<svg width="101" height="17" viewBox="0 0 101 17" fill="none" xmlns="http://www.w3.org/2000/svg">
<g clip-path="url(#clip0)">
<path d="M1.26449 15.3925C0.36955 14.2593 -0.0747041 12.9006 1.02073e-05 11.5253V5.79371C-0.108365 4.40365 0.308071 3.0209 1.18546 1.85752C2.05478 0.959792 3.39829 0.545456 5.37403 0.545456C7.34978 0.545456 8.61425 0.959792 9.40455 1.71941C10.2626 2.68152 10.6846 3.88622 10.59 5.10315V6.48427H6.71754V4.89598C6.74881 4.42623 6.66808 3.95592 6.48045 3.51486C6.38016 3.33683 6.2212 3.18908 6.02403 3.09063C5.82686 2.99218 5.60049 2.94753 5.37403 2.96241C4.82082 2.96241 4.42568 3.10053 4.26762 3.44581C4.08883 3.93646 4.00862 4.45046 4.03053 4.96504V12.354C3.98879 12.8533 4.0978 13.3533 4.34665 13.8042C4.5047 14.1495 4.89985 14.2876 5.45306 14.2876C6.00627 14.2876 6.32239 14.1495 6.48045 13.8042C6.66013 13.3375 6.74049 12.846 6.71754 12.354V10.6967H10.59V12.0778C10.6704 13.3146 10.2508 14.5367 9.40455 15.5306C8.61425 16.3593 7.27075 16.7736 5.37403 16.7736C3.47732 16.7045 2.05478 16.2902 1.26449 15.3925Z" fill="#111111"/>
<path d="M15.2527 0.752625H19.7574L23.0767 16.4974H19.4413L18.8091 13.1827H16.2011L15.5689 16.4974H11.8545L15.2527 0.752625ZM18.493 11.111L17.5446 4.96504L16.5963 11.111H18.493Z" fill="#111111"/>
<path d="M25.8427 3.37675H23.1557V0.752625H32.5602V3.30769H29.8732V16.4974H25.8427V3.37675Z" fill="#111111"/>
<path d="M39.752 0.752625H46.7066V2.40997H42.2019V7.58916H45.8372V9.17745H42.2019V14.9781H46.7066V16.5664H39.6729V0.752625H39.752Z" fill="#111111"/>
<path d="M48.7613 0.752625H50.5L55.6369 11.1801V0.752625H57.6917V16.4974H56.1111L50.8951 5.72465V16.4974H48.7613V0.752625Z" fill="#111111"/>
<path d="M60.0626 0.752625H67.0172V2.40997H62.5125V7.58916H66.1479V9.17745H62.5125V14.9781H67.0172V16.5664H60.0626V0.752625Z" fill="#111111"/>
<path d="M69.072 0.752625H72.7074C74.1375 0.666307 75.5587 1.00721 76.7379 1.71941C77.6072 2.34091 78.0024 3.44581 78.0024 4.89598C78.0024 6.8986 77.2911 8.14161 75.7895 8.55594L78.3185 16.4283H75.8686L73.4977 9.03934H71.5219V16.4283H68.993V0.752625H69.072ZM72.5493 7.52011C73.364 7.57877 74.1761 7.38301 74.8412 6.96766C75.3154 6.62238 75.5524 5.93182 75.5524 4.89598C75.5743 4.38141 75.4941 3.86741 75.3154 3.37675C75.1375 3.02467 74.832 2.73349 74.446 2.54808C73.9017 2.33134 73.3042 2.23642 72.7074 2.27186H71.601V7.45105H72.5493V7.52011Z" fill="#111111"/>
<path d="M81.1635 15.3234C80.342 14.116 79.9564 12.7201 80.0571 11.3182V6.06993C80.0376 5.0692 80.1705 4.07065 80.4522 3.10053C80.7167 2.37559 81.2437 1.74543 81.9538 1.30507C82.8362 0.848665 83.8542 0.632296 84.8779 0.683569C86.5375 0.683569 87.723 1.02885 88.4343 1.78846C89.2524 2.79149 89.6438 4.01282 89.5407 5.24126V5.79371H87.1698V5.31032C87.1734 4.73197 87.1205 4.15441 87.0117 3.58392C86.9451 3.22341 86.7178 2.90063 86.3795 2.68619C85.9353 2.43142 85.4081 2.3102 84.8779 2.34091C84.3113 2.30918 83.7504 2.45621 83.2973 2.75525C83.1114 2.89213 82.9595 3.06072 82.8508 3.25071C82.742 3.4407 82.6789 3.64807 82.6651 3.86014C82.5609 4.47749 82.5081 5.10063 82.507 5.72465V11.5944C82.4488 12.4887 82.6105 13.3835 82.9812 14.2185C83.2973 14.771 83.9296 14.9781 84.8779 14.9781C85.2524 15.0189 85.6322 14.962 85.9697 14.8145C86.3072 14.6671 86.5873 14.4357 86.7746 14.1495C87.1922 13.2762 87.3812 12.3325 87.3278 11.3872V10.2823H85.036V8.69406H89.6197V16.4974H88.0391L87.802 14.7019C87.5948 15.3037 87.1634 15.8276 86.5763 16.1905C85.9892 16.5533 85.2801 16.7343 84.5618 16.7045C83.9088 16.7381 83.2565 16.6295 82.6633 16.3884C82.0702 16.1474 81.5549 15.7814 81.1635 15.3234Z" fill="#111111"/>
<path d="M94.6776 10.9729L90.8052 0.821686H93.1761L95.9421 8.41784L98.6291 0.821686H101L97.1275 10.9729V16.4974H94.7566V10.9729H94.6776Z" fill="#111111"/>
</g>
<defs>
<clipPath id="clip0">
<rect width="101" height="16.1591" fill="white" transform="translate(0 0.545456)"/>
</clipPath>
</defs>
</svg>
