<svg width="42" height="36" viewBox="0 0 42 36" fill="none" xmlns="http://www.w3.org/2000/svg">
<g clip-path="url(#clip0)">
<path d="M7.65126 19.833V17.6698C16.076 16.7914 24.5719 16.3659 33.0756 16.3967C33.0756 16.971 33.0756 17.5549 33 18.1388C35.4171 17.3242 37.9573 16.7391 40.563 16.3967C38.9023 13.1346 35.8762 10.3771 31.9501 8.54856C28.0241 6.71999 23.4157 5.92158 18.8337 6.27616C14.2518 6.63073 9.95016 8.11865 6.59057 10.511C3.23099 12.9034 0.99954 16.0677 0.239496 19.5172L7.65126 19.833Z" fill="#FDC305"/>
<path d="M34.3361 23.1928C32.874 24.418 32.584 24.3414 32.584 26.4951C32.584 27.3661 32.584 31.1853 32.584 35.2821C35.4738 33.8329 37.8461 31.8629 39.4891 29.548C41.1321 27.233 41.9947 24.6452 42 22.0154C41.9834 21.0191 41.8484 20.026 41.5966 19.0481C38.9851 20.225 36.5505 21.6148 34.3361 23.1928Z" fill="#FDC305"/>
<path d="M8.01681 24.619C8.01681 24.619 3.2395 23.2406 1.47479 22.8673C0.992101 22.7518 0.499282 22.6622 0 22.5993C0.136633 25.3617 1.21713 28.0497 3.13536 30.3991C5.0536 32.7485 7.7436 34.6787 10.9412 36L8.01681 24.619Z" fill="#FDC305"/>
<path d="M33.1387 16.3871C33.1899 11.102 32.5992 5.82471 31.3739 0.622093C31.3739 0.622093 31.1975 -0.612685 30.2521 0.392367C29.5096 1.58708 29 2.85751 28.7395 4.1637C23.3721 3.90121 17.9843 4.01014 12.6429 4.48915C11.6471 1.9143 9.89496 0.717813 9.05042 0.957111C8.20588 1.19641 8.14286 4.12542 8.14286 4.12542L7.72689 17.6218C16.1486 16.7565 24.6404 16.3439 33.1387 16.3871V16.3871Z" fill="#F06351"/>
<path d="M15.6429 13.4007C15.6429 13.3145 16.9034 14.0516 17.4202 14.2813C17.937 14.511 18.1891 14.6833 18.1891 14.846C18.1891 15.0088 17.8487 15.1715 17.395 15.1715C16.9412 15.1715 16.2479 15.0566 16.1345 14.9131H17.3193H17.6849C16.9169 14.4817 16.2299 13.9729 15.6429 13.4007V13.4007Z" fill="black"/>
<path d="M25.0714 13.506L23.6975 14.7791C23.6975 14.8365 23.4832 15.1141 23.9244 15.0662C24.4465 15.0071 24.9609 14.9142 25.4622 14.7886C25.6008 14.7886 25.5504 14.6068 25.3235 14.6259C25.0966 14.645 24.4538 14.6738 24.063 14.7312L25.1218 13.5251C25.1218 13.5251 25.2101 13.4007 25.0714 13.506Z" fill="black"/>
<path d="M21.1134 19.3353C21.6977 19.1398 22.1807 18.8033 22.4874 18.3781C22.8403 17.7559 22.4874 17.5071 21.9328 17.4209C21.1738 17.3158 20.3905 17.432 19.7395 17.7463C19.2479 18.0909 19.3109 18.4355 19.6765 18.7035C20.1193 18.9584 20.602 19.1705 21.1134 19.3353V19.3353Z" fill="black"/>
<path d="M20.6092 20.5318C20.468 20.7505 20.2709 20.9457 20.0294 21.1061C19.6704 21.3254 19.2291 21.4527 18.7689 21.4698C18.1057 21.51 17.4461 21.3635 16.916 21.0582C16.6667 20.9441 16.4415 20.8021 16.2479 20.6371C16.1212 20.5309 15.9666 20.4461 15.7941 20.3882C15.7941 20.3882 16.7395 24.3127 19.0336 24.9349C21.3277 25.557 21.7311 24.217 21.8067 23.8532C21.8825 22.7669 21.5221 21.6888 20.7731 20.7615C20.7479 20.4648 20.7353 20.6562 20.6092 20.5318Z" fill="#F06351"/>
<path d="M18.542 21.623C17.9563 21.5605 17.3936 21.4077 16.8885 21.174C16.3834 20.9402 15.9466 20.6305 15.605 20.2638C15.5883 20.2513 15.5749 20.2364 15.5659 20.22C15.5568 20.2035 15.5521 20.1859 15.5521 20.168C15.5521 20.1502 15.5568 20.1326 15.5659 20.1161C15.5749 20.0997 15.5883 20.0848 15.605 20.0723C15.6215 20.0596 15.6411 20.0495 15.6627 20.0426C15.6844 20.0357 15.7076 20.0321 15.7311 20.0321C15.7546 20.0321 15.7778 20.0357 15.7995 20.0426C15.8211 20.0495 15.8407 20.0596 15.8571 20.0723C16.4934 20.7368 17.4491 21.1839 18.5168 21.3167V21.3167C18.9349 21.2928 19.3394 21.1935 19.6967 21.027C20.0541 20.8605 20.354 20.6317 20.5714 20.3595L20.7479 20.1776L20.8739 20.3786C20.8739 20.3786 21.3403 21.1061 22.1345 21.1444C22.9286 21.1827 23.458 20.7519 24.1639 19.9192C24.1803 19.9064 24.1999 19.8963 24.2216 19.8894C24.2432 19.8825 24.2664 19.879 24.2899 19.879C24.3134 19.879 24.3366 19.8825 24.3583 19.8894C24.3799 19.8963 24.3995 19.9064 24.416 19.9192C24.4567 19.9389 24.4859 19.9698 24.4976 20.0054C24.5094 20.041 24.5027 20.0786 24.479 20.1106C23.6723 21.0678 22.8782 21.489 22.1092 21.4507C21.8168 21.4184 21.5378 21.3362 21.2933 21.2102C21.0487 21.0841 20.845 20.9177 20.6975 20.7232C20.4495 20.9859 20.1272 21.2031 19.7542 21.3589C19.3812 21.5146 18.967 21.6048 18.542 21.623V21.623Z" fill="black"/>
<path d="M33.0756 18.1101C30.8124 19.6642 28.678 21.3234 26.6849 23.0779C24.7042 24.8259 22.467 26.3963 20.0168 27.7586C19.7395 27.2513 17.9748 26.3132 17.9748 26.3132C17.9748 26.3132 14.0294 24.2648 11.4454 22.6567C10.0514 21.764 8.73365 20.8049 7.5 19.7852L4.97899 19.6799C8.62207 23.7054 13.954 26.6746 20.105 28.1032C21.1891 27.9692 24.2269 26.3228 26.4958 24.9827C29.1667 23.2424 31.6689 21.3582 33.9832 19.3448C34.6166 18.7811 35.1041 18.1316 35.4202 17.4305C34.0336 17.8038 33.0756 18.1101 33.0756 18.1101Z" fill="#F06351"/>
</g>
<defs>
<clipPath id="clip0">
<rect width="42" height="36" fill="white"/>
</clipPath>
</defs>
</svg>
